<svg fill="none" stroke-linecap="square" stroke-miterlimit="10" viewBox="0 0 772.33070866 426.39370079" xmlns="http://www.w3.org/2000/svg" xmlns:xlink="http://www.w3.org/1999/xlink"><clipPath id="a"><path d="m0 0h772.3307v426.3937h-772.3307z"/></clipPath><g clip-path="url(#a)"><path d="m0 0h772.3307v426.3937h-772.3307z" fill="none"/><path d="m284.92914 282.10236h200.6614v129.7323h-200.6614z" fill="#f4cccc" fill-rule="evenodd"/><path d="m284.92914 282.10236h200.6614v129.7323h-200.6614z" fill-rule="evenodd" stroke="#000" stroke-linecap="butt" stroke-linejoin="round"/><path d="m325.56314 353.9304q.640625-.03125.96875-.15625.34375-.140625.53125-.5625.203125-.4375.203125-1.375v-9.1875q0-1.34375.09375-2.171875l-1.796875.078125v-1.84375l6.640625-.046875q2.890625-.03125 4.515625 1.03125 1.625 1.046875 1.625 3.09375 0 1.171875-.875 2.171875-.875 1-2.578125 1.453125v.015625q2.3125.359375 3.484375 1.546875 1.171875 1.171875 1.171875 2.75 0 2.28125-1.625 3.53125-1.609375 1.25-4.203125 1.25h-8.15625zm6.421875-7.875q1.421875-.03125 2.046875-.90625.640625-.875.640625-2.3125 0-1.296875-.71875-1.890625-.71875-.609375-1.75-.609375-.5 0-.796875.125-.296875.125-.484375.5625-.171875.4375-.171875 1.328125v3.71875zm-1.34375 7.75q1.59375 0 2.328125-.03125 1.421875-.0625 2.109375-.890625.703125-.828125.703125-2.21875 0-1.546875-.890625-2.21875-.890625-.6875-2.203125-.6875-1.3125 0-1.9375.015625v3.921875q0 1.296875-.109375 2.109375zm16.442078 2.09375q-1.75 0-3.140625-.75-1.390625-.75-2.1875-2.140625-.78125-1.390625-.78125-3.234375 0-1.953125.8125-3.453125.8125-1.515625 2.1875-2.359375 1.390625-.84375 3.046875-.84375 1.71875 0 3.078125.75 1.375.75 2.171875 2.15625.796875 1.390625.796875 3.265625 0 2-.765625 3.484375-.75 1.484375-2.109375 2.3125-1.359375.8125-3.109375.8125zm.046875-1.703125q1.328125 0 1.84375-1.21875.53125-1.234375.53125-3.078125 0-2.078125-.59375-3.578125-.59375-1.515625-1.890625-1.515625-1.328125 0-1.9375 1.25-.59375 1.25-.59375 3.0625 0 2.09375.640625 3.59375.65625 1.484375 2 1.484375zm12.412079 1.703125q-3.75 0-3.75-4.609375l.0625-5.796875h-1.640625v-1.984375q.765625 0 1.453125-.46875.6875-.484375 1.15625-1.1875.484375-.703125.6875-1.34375h1.765625l-.015625 3h3.046875v1.84375l-3.046875.078125-.03125 5.90625q0 2.328125 1.4375 2.328125 1.15625 0 2.1875-1.4375l1.15625 1.078125q-1.125 1.65625-2.265625 2.125-1.125.46875-2.203125.46875zm17.864594 0q-.984375 0-2.109375-.3125-1.109375-.3125-2.046875-.875h-.03125l.078125 1.015625h-1.84375v-5.625h1.578125q.3125 1.96875 1.515625 3.015625 1.203125 1.046875 2.921875 1.046875 1.25 0 2.0625-.65625.8125-.65625.8125-1.59375 0-.78125-.546875-1.328125-.53125-.546875-1.1875-.859375-.65625-.3125-2.09375-.890625-2.640625-1.0625-4.046875-2.40625-1.40625-1.34375-1.40625-3.515625 0-1.109375.546875-2.15625.5625-1.046875 1.8125-1.734375 1.265625-.703125 3.25-.703125 1.046875 0 2.171875.3125 1.125.296875 1.875.84375h.015625l-.09375-.984375h1.875v5.59375h-1.59375q-.3125-1.96875-1.375-3-1.0625-1.03125-2.71875-1.03125-1.078125 0-1.859375.59375-.78125.578125-.78125 1.46875 0 1.046875.875 1.78125.890625.71875 3.015625 1.578125 2.421875.953125 3.9375 2.21875 1.53125 1.265625 1.53125 3.34375 0 1.421875-.78125 2.53125-.765625 1.09375-2.15625 1.71875-1.390625.609375-3.203125.609375zm13.648834 0q-1.75 0-3.09375-.78125-1.34375-.78125-2.09375-2.21875-.734375-1.453125-.734375-3.359375 0-1.6875.75-3.15625.75-1.484375 2.109375-2.375 1.375-.890625 3.140625-.890625 2.328125 0 3.875 1.375 1.546875 1.375 1.515625 4.5625l-7.875.140625q0 2.109375.796875 3.34375.8125 1.21875 2.59375 1.21875.84375 0 1.796875-.421875.96875-.4375 1.734375-1.375l1.078125 1q-2.046875 2.9375-5.59375 2.9375zm2.15625-8.375q-.0625-2.71875-1.96875-2.71875-1.03125 0-1.640625.734375-.609375.734375-.796875 1.984375zm5.068207 6.421875q.90625 0 1.15625-.5.265625-.5.265625-1.640625v-4.03125q0-1.078125.09375-2.03125l-1.6875.0625v-1.8125q1.515625 0 2.453125-.21875.9375-.21875 1.25-.5h1.171875q.046875.359375.0625.9375.03125.5625.03125 1.125h.046875q1.640625-2.21875 3.453125-2.21875.921875 0 1.5.515625.59375.5.59375 1.484375 0 .625-.40625 1.15625-.40625.515625-1.21875.515625-.609375 0-1.078125-.3125-.46875-.3125-.53125-1.078125-.671875 0-1.390625.78125-.703125.78125-.9375 1.546875v3.921875q0 1.140625-.09375 2.109375.765625-.078125 1.546875-.078125v1.828125h-6.28125zm12.1918335-6.6875q-.28125-.65625-.390625-.984375-.109375-.34375-.15625-.59375-.046875-.25-.078125-.390625l-.890625.046875v-1.828125h5.625v1.53125q-.828125.03125-.828125.796875 0 .4375.25 1.078125l2.015625 4.96875h.015625l1.75-4.9375q.34375-.921875.796875-1.6875v-.015625l-1.484375.09375v-1.828125h4.5625v1.53125q-.75.125-1.265625.9375-.515625.8125-.96875 1.953125l-3.078125 7.65625h-2.078125zm17.927582 8.640625q-1.75 0-3.09375-.78125-1.34375-.78125-2.09375-2.21875-.734375-1.453125-.734375-3.359375 0-1.6875.75-3.15625.75-1.484375 2.109375-2.375 1.375-.890625 3.140625-.890625 2.328125 0 3.875 1.375 1.546875 1.375 1.515625 4.5625l-7.875.140625q0 2.109375.796875 3.34375.8125 1.21875 2.59375 1.21875.84375 0 1.796875-.421875.96875-.4375 1.734375-1.375l1.078125 1q-2.046875 2.9375-5.59375 2.9375zm2.15625-8.375q-.0625-2.71875-1.96875-2.71875-1.03125 0-1.640625.734375-.609375.734375-.796875 1.984375zm5.068207 6.421875q.90625 0 1.15625-.5.265625-.5.265625-1.640625v-4.03125q0-1.078125.09375-2.03125l-1.6875.0625v-1.8125q1.515625 0 2.453125-.21875.9375-.21875 1.25-.5h1.171875q.046875.359375.0625.9375.03125.5625.03125 1.125h.046875q1.640625-2.21875 3.453125-2.21875.921875 0 1.5.515625.59375.5.59375 1.484375 0 .625-.40625 1.15625-.40625.515625-1.21875.515625-.609375 0-1.078125-.3125-.46875-.3125-.53125-1.078125-.671875 0-1.390625.78125-.703125.78125-.9375 1.546875v3.921875q0 1.140625-.09375 2.109375.765625-.078125 1.546875-.078125v1.828125h-6.28125z" fill="#434343"/><path d="m271.5237 70.1325c-2.2559814-15.200184 5.1508484-30.247448 19.077545-38.75668 13.926666-8.50923 31.930725-8.988094 46.372406-1.2333927 5.1156616-8.838018 14.478851-14.940061 25.257385-16.460377 10.778503-1.5203161 21.70636 1.7196608 29.478119 8.7399 4.35791-8.013116 12.914703-13.396906 22.634033-14.240922 9.71933-.8440156 19.225647 2.9711924 25.14563 10.09179 7.8731995-8.493882 20.399628-12.07016 32.159058-9.181357 11.75943 2.8888025 20.63974 11.72383 22.7984 22.682117 9.645996 2.4123 17.680908 8.544682 22.028748 16.812737 4.3478394 8.268059 4.5821533 17.860706.642395 26.299519 9.498474 11.334251 11.720398 26.436996 5.836609 39.672165-5.883789 13.235168-18.98938 22.614334-34.425934 24.637344-.10882568 12.421677-7.5391846 23.819672-19.427094 29.800674-11.887939 5.981003-26.377106 5.611084-37.88272-.9671936-4.9007874 14.877121-18.694885 25.823547-35.4227 28.110046-16.727844 2.286499-33.390594-4.4968414-42.7894-17.419373-11.520935 6.3695526-25.345123 8.204422-38.354095 5.0906982-13.008942-3.113739-24.106873-10.913773-30.790283-21.640594-11.772949 1.2631073-23.155792-4.329239-28.499222-14.001587-5.343445-9.672348-3.5099945-21.365677 4.5904083-29.276642-10.501801-5.6670303-15.860443-16.912308-13.281631-27.871857 2.578827-10.959549 12.510757-19.149895 24.616653-20.300095z" fill="#9fc5e8" fill-rule="evenodd"/><path d="m259.95596 118.89029c4.955841 2.6742935 10.680969 3.887413 16.406738 3.4764862m7.4995117 39.802704c2.4622803-.26417542 4.8757935-.8236084 7.1782837-1.6638489m61.962646 18.213058c-1.7318115-2.3810883-3.1817627-4.9254913-4.325165-7.589859m82.54025-3.1012573c.89349365-2.712326 1.4723816-5.503891 1.7270508-8.328125m55.580597-20.504318c.11581421-13.2247925-8.076874-25.33355-21.059143-31.125206m49.648193-33.182907c-2.102478 4.503296-5.312042 8.4981-9.377167 11.671211m-13.291992-54.784645c.35821533 1.8185291.5239868 3.6643925.49505615 5.512003m-55.4516-19.012215c-1.9639587 2.118801-3.5820007 4.486536-4.803772 7.029476m-42.97632-2.8812695c-1.0466309 1.9244919-1.828186 3.9609337-2.3266602 6.062416m-52.409668 1.6582222c3.0558472 1.6408901 5.8829346 3.6158772 8.419128 5.8815746m-73.868225 34.10871c.3109436 2.0949783.8022156 4.164131 1.4692688 6.1880875" fill="none"/><path d="m271.5237 70.1325c-2.2559814-15.200184 5.1508484-30.247448 19.077545-38.75668 13.926666-8.50923 31.930725-8.988094 46.372406-1.2333927 5.1156616-8.838018 14.478851-14.940061 25.257385-16.460377 10.778503-1.5203161 21.70636 1.7196608 29.478119 8.7399 4.35791-8.013116 12.914703-13.396906 22.634033-14.240922 9.71933-.8440156 19.225647 2.9711924 25.14563 10.09179 7.8731995-8.493882 20.399628-12.07016 32.159058-9.181357 11.75943 2.8888025 20.63974 11.72383 22.7984 22.682117 9.645996 2.4123 17.680908 8.544682 22.028748 16.812737 4.3478394 8.268059 4.5821533 17.860706.642395 26.299519 9.498474 11.334251 11.720398 26.436996 5.836609 39.672165-5.883789 13.235168-18.98938 22.614334-34.425934 24.637344-.10882568 12.421677-7.5391846 23.819672-19.427094 29.800674-11.887939 5.981003-26.377106 5.611084-37.88272-.9671936-4.9007874 14.877121-18.694885 25.823547-35.4227 28.110046-16.727844 2.286499-33.390594-4.4968414-42.7894-17.419373-11.520935 6.3695526-25.345123 8.204422-38.354095 5.0906982-13.008942-3.113739-24.106873-10.913773-30.790283-21.640594-11.772949 1.2631073-23.155792-4.329239-28.499222-14.001587-5.343445-9.672348-3.5099945-21.365677 4.5904083-29.276642-10.501801-5.6670303-15.860443-16.912308-13.281631-27.871857 2.578827-10.959549 12.510757-19.149895 24.616653-20.300095z" fill-rule="evenodd" stroke="#000" stroke-linecap="butt" stroke-linejoin="round"/><path d="m259.95596 118.89029c4.955841 2.6742935 10.680969 3.887413 16.406738 3.4764862m7.4995117 39.802704c2.4622803-.26417542 4.8757935-.8236084 7.1782837-1.6638489m61.962646 18.213058c-1.7318115-2.3810883-3.1817627-4.9254913-4.325165-7.589859m82.54025-3.1012573c.89349365-2.712326 1.4723816-5.503891 1.7270508-8.328125m55.580597-20.504318c.11581421-13.2247925-8.076874-25.33355-21.059143-31.125206m49.648193-33.182907c-2.102478 4.503296-5.312042 8.4981-9.377167 11.671211m-13.291992-54.784645c.35821533 1.8185291.5239868 3.6643925.49505615 5.512003m-55.4516-19.012215c-1.9639587 2.118801-3.5820007 4.486536-4.803772 7.029476m-42.97632-2.8812695c-1.0466309 1.9244919-1.828186 3.9609337-2.3266602 6.062416m-52.409668 1.6582222c3.0558472 1.6408901 5.8829346 3.6158772 8.419128 5.8815746m-73.868225 34.10871c.3109436 2.0949783.8022156 4.164131 1.4692688 6.1880875" fill-rule="evenodd" stroke="#000" stroke-linecap="butt" stroke-linejoin="round"/><path d="m302.8171 104.26491q.65625-.03125.984375-.15625.34375-.140625.53125-.5625.203125-.4375.203125-1.375v-11.5h-1.109375q-1.421875.03125-2.1875.96875-.765625.9375-.765625 2.828125h-1.578125l.109375-5.421875h14.546875l.140625 5.421875h-1.578125q0-1.890625-.78125-2.859375-.78125-.984375-2.171875-.953125h-1.15625v11.25q0 1.609375-.09375 2.15625.796875-.0625 1.921875-.0625v1.84375h-7.015625zm17.95932 1.96875q-1.75 0-3.09375-.78125-1.34375-.78125-2.09375-2.21875-.734375-1.453125-.734375-3.359375 0-1.6875.75-3.15625.75-1.484375 2.109375-2.375 1.375-.890625 3.140625-.890625 2.328125 0 3.875 1.375 1.546875 1.375 1.515625 4.5625l-7.875.140625q0 2.109375.796875 3.34375.8125 1.21875 2.59375 1.21875.84375 0 1.796875-.421875.96875-.4375 1.734375-1.375l1.078125 1q-2.046875 2.9375-5.59375 2.9375zm2.15625-8.375q-.0625-2.71875-1.96875-2.71875-1.03125 0-1.640625.734375-.609375.734375-.796875 1.984375zm4.677582 6.421875q.65625 0 .953125-.25.296875-.25.375-.671875.09375-.4375.09375-1.21875v-9.859375q0-1.15625.09375-2.078125l-1.671875.0625v-1.828125q1.5 0 2.4375-.203125.9375-.21875 1.25-.515625h1.296875v14.265625q0 1.140625-.09375 2.109375.796875-.078125 1.5625-.078125v1.828125h-6.296875zm13.566101 1.953125q-1.75 0-3.09375-.78125-1.34375-.78125-2.09375-2.21875-.734375-1.453125-.734375-3.359375 0-1.6875.75-3.15625.75-1.484375 2.109375-2.375 1.375-.890625 3.140625-.890625 2.328125 0 3.875 1.375 1.546875 1.375 1.515625 4.5625l-7.875.140625q0 2.109375.796875 3.34375.8125 1.21875 2.59375 1.21875.84375 0 1.796875-.421875.96875-.4375 1.734375-1.375l1.078125 1q-2.046875 2.9375-5.59375 2.9375zm2.15625-8.375q-.0625-2.71875-1.96875-2.71875-1.03125 0-1.640625.734375-.609375.734375-.796875 1.984375zm10.224457 14.484375q-2.90625 0-4.1875-.890625-1.28125-.875-1.28125-2.25 0-.84375.53125-1.578125.546875-.71875 1.75-1.1875-.9375-.25-1.359375-.796875-.421875-.5625-.421875-1.3125 0-.71875.5625-1.453125.5625-.75 1.765625-1.109375v-.03125q-1.078125-.421875-1.71875-1.34375-.625-.9375-.625-2.203125 0-1.34375.75-2.421875.75-1.078125 1.984375-1.6875 1.25-.625 2.609375-.625.71875 0 1.515625.1875.796875.171875 1.34375.5625.453125-1.25 1.21875-2.078125.78125-.828125 1.828125-.828125.796875 0 1.21875.40625.4375.40625.4375 1.125 0 .5625-.34375 1.015625-.34375.453125-1.09375.453125-.390625 0-.765625-.265625-.359375-.28125-.4375-.671875-.3125.09375-.625.609375-.3125.515625-.359375.953125.671875.609375 1.046875 1.40625.375.78125.375 1.6875 0 1.34375-.78125 2.4375-.765625 1.09375-2.015625 1.703125-1.234375.609375-2.65625.609375l-.671875-.015625q-.53125-.046875-.765625-.046875-.53125 0-.890625.1875-.359375.1875-.359375.53125 0 .4375.65625.625.671875.171875 2.421875.265625 3.015625.15625 4.578125 1 1.5625.84375 1.5625 2.8125 0 1.296875-1 2.25-1 .96875-2.578125 1.46875-1.5625.5-3.21875.5zm.359375-11.1875q.921875 0 1.453125-.8125.546875-.8125.546875-1.890625 0-1.375-.53125-2.375-.53125-1.015625-1.484375-1.015625-.921875 0-1.46875.84375-.546875.84375-.546875 2 0 1.34375.546875 2.296875.546875.953125 1.484375.953125zm.34375 9.53125q1.078125 0 1.859375-.296875.78125-.28125 1.1875-.71875.40625-.4375.40625-.90625 0-.734375-.859375-1.125-.84375-.375-2.59375-.453125-.203125-.03125-.625-.03125-.25-.015625-.84375-.0625-.59375-.03125-.984375-.09375-.359375.28125-.5625.734375-.203125.46875-.203125.921875 0 .9375.875 1.484375.875.546875 2.34375.546875zm7.508606-6.40625q.90625 0 1.15625-.5.265625-.5.265625-1.640625v-4.03125q0-1.078125.09375-2.03125l-1.6875.0625v-1.8125q1.515625 0 2.453125-.21875.9375-.21875 1.25-.5h1.171875q.046875.359375.0625.9375.03125.5625.03125 1.125h.046875q1.640625-2.21875 3.453125-2.21875.921875 0 1.5.515625.59375.5.59375 1.484375 0 .625-.40625 1.15625-.40625.515625-1.21875.515625-.609375 0-1.078125-.3125-.46875-.3125-.53125-1.078125-.671875 0-1.390625.78125-.703125.78125-.9375 1.546875v3.921875q0 1.140625-.09375 2.109375.765625-.078125 1.546875-.078125v1.828125h-6.28125zm14.5199585 1.953125q-1.515625 0-2.390625-.90625-.875-.90625-.875-2.296875 0-2.109375 1.96875-3.203125 1.96875-1.09375 4.734375-1.203125v-1.25q0-2.1875-1.640625-2.1875-1.046875 0-1.71875.671875.28125.34375.28125.90625 0 .578125-.40625 1.046875-.390625.453125-1.15625.453125-.71875 0-1.125-.46875-.40625-.46875-.40625-1.171875 0-.9375.671875-1.65625.671875-.71875 1.828125-1.109375 1.171875-.40625 2.5625-.40625 4.4375 0 4.4375 4.59375l-.015625 3.9375q0 1.140625-.109375 2.109375.796875-.078125 1.5625-.078125v1.828125h-4.53125q-.046875-.3125-.09375-1.109375h-.03125q-1.453125 1.5-3.546875 1.5zm1.515625-2.359375q1.078125 0 1.890625-.859375v-2.6875q-1.421875.140625-2.34375.71875-.921875.578125-.921875 1.5625 0 .640625.390625.953125.40625.3125.984375.3125zm8.060333.40625q.90625 0 1.15625-.5.265625-.5.265625-1.640625v-4.03125q0-1.078125.09375-2.03125l-1.6875.0625v-1.8125q1.515625 0 2.453125-.21875.9375-.21875 1.25-.5h1.171875q0 .046875.09375 1.1875h.046875q.75-.59375 1.6875-.96875.9375-.375 1.828125-.375 1.078125 0 1.796875.40625.734375.390625 1.171875 1.1875.859375-.71875 1.90625-1.15625 1.0625-.4375 2-.4375 2 0 2.96875 1.15625.96875 1.15625.96875 3.84375v3.53125q0 1.140625-.09375 2.109375.765625-.078125 1.5625-.078125v1.828125h-6.078125v-1.5625q.765625 0 .984375-.515625.21875-.515625.21875-1.625v-3.671875q-.015625-1.5-.5-2.140625-.484375-.640625-1.390625-.640625-1.0625 0-2.0625.796875.21875.953125.21875 2.28125v3.21875q0 1.140625-.109375 2.109375.78125-.078125 1.5625-.078125v1.828125h-6.1875v-1.5625q.84375 0 1.078125-.5.234375-.5.234375-1.640625l-.015625-3.734375q0-1.484375-.4375-2.09375-.421875-.625-1.296875-.640625-1.046875 0-2.03125.890625v5.421875q0 1.140625-.09375 2.109375.765625-.078125 1.4375-.078125v1.828125h-6.171875zm27.501312-.09375q.625 0 1.046875-.359375.421875-.359375.65625-.875.25-.515625.609375-1.5l4.671875-12.84375h1.6875l5.109375 13.078125q.1875.484375.40625 1.203125.21875.703125.265625 1.171875.796875-.0625 1.390625-.0625v1.84375h-6.453125v-1.578125q1.140625 0 1.140625-.96875 0-.484375-.25-1.15625l-.484375-1.3125-5.203125.09375-.390625 1.125q-.078125.203125-.328125.875-.25.671875-.4375 1.078125.765625-.078125 1.703125-.078125v1.921875h-5.140625zm9.1875-5.0625-1.09375-3q-.703125-1.96875-.921875-3.296875h-.015625q-.390625 1.734375-.890625 3.171875l-1.078125 3.125zm7.953827 5.140625q.640625-.03125.96875-.15625.34375-.140625.53125-.5625.203125-.4375.203125-1.375v-9.1875q0-1.34375.09375-2.171875l-1.796875.078125v-1.84375l6.8125-.046875q3.234375-.03125 5.0625 1.28125 1.84375 1.3125 1.84375 3.96875 0 1.375-.765625 2.625-.765625 1.234375-2.3125 2.03125-1.53125.796875-3.734375.859375l-.9375.03125-.78125-.03125v2.125q0 1.359375-.109375 2.171875.78125-.0625 2.046875-.0625v1.84375h-7.125zm6.265625-6.21875q1.9375 0 2.828125-.96875.90625-.984375.90625-2.84375 0-3.5625-3.21875-3.5625-.828125 0-1.21875.359375-.375.359375-.375 1.546875v5.390625q.5.078125 1.078125.078125zm9.0703125 6.21875q.640625-.03125.96875-.15625.34375-.140625.53125-.5625.203125-.4375.203125-1.375v-9.1875q0-1.34375.09375-2.171875l-1.796875.078125v-1.84375h6.890625v1.578125q-.65625.03125-1 .171875-.328125.125-.515625.5625-.1875.421875-.1875 1.359375v9.1875q0 1.34375-.109375 2.15625.78125-.0625 1.8125-.0625v1.84375h-6.890625z" fill="#434343"/><path d="m562.4775 282.1052h200.66144v129.73227h-200.66144z" fill="#b4a7d6" fill-rule="evenodd"/><path d="m562.4775 282.1052h200.66144v129.73227h-200.66144z" fill-rule="evenodd" stroke="#000" stroke-linecap="butt" stroke-linejoin="round"/><path d="m591.8599 355.90195q-2.875 0-4.75-1.265625-1.875-1.28125-2.734375-3.265625-.859375-2-.859375-4.265625 0-2.125.953125-4.140625.96875-2.015625 2.875-3.328125 1.90625-1.3125 4.59375-1.3125 2.765625 0 4.640625 1.3125 1.890625 1.3125 2.796875 3.328125.90625 2.015625.90625 4.140625 0 2.09375-.953125 4.125-.953125 2.03125-2.875 3.359375-1.90625 1.3125-4.59375 1.3125zm.25-1.765625q1.546875 0 2.53125-.984375.984375-.984375 1.421875-2.484375.4375-1.515625.4375-3.140625 0-3.421875-1.203125-5.4375-1.203125-2.015625-3.546875-2.015625-1.59375 0-2.609375 1.015625-1 1-1.4375 2.546875-.421875 1.53125-.421875 3.1875 0 1.671875.46875 3.359375.484375 1.6875 1.578125 2.828125 1.09375 1.125 2.78125 1.125zm9.768433 5.9375q.90625 0 1.171875-.515625.265625-.5.265625-1.625v-10.15625q0-1.078125.09375-2.03125l-1.703125.0625v-1.8125q1.515625 0 2.4375-.21875.9375-.21875 1.25-.5h1.1875q.046875.40625.109375 1.140625h.03125q1.484375-1.296875 3.21875-1.296875 1.4375 0 2.53125.75 1.09375.75 1.703125 2.125.609375 1.375.609375 3.203125 0 1.921875-.75 3.453125-.734375 1.515625-2.09375 2.390625-1.359375.859375-3.109375.859375-.9375 0-2.140625-.4375v2.296875q0 1.03125-.0625 2.125.734375-.078125 1.53125-.078125v1.828125h-6.28125zm6.46875-5.984375q2.90625 0 2.90625-4.53125 0-1.78125-.640625-3.015625-.625-1.25-1.90625-1.25-.59375 0-1.140625.296875-.53125.28125-.875.75v7.328125q.25.15625.71875.296875.46875.125.9375.125zm13.877075 1.8125q-1.75 0-3.09375-.78125-1.34375-.78125-2.09375-2.21875-.734375-1.453125-.734375-3.359375 0-1.6875.75-3.15625.75-1.484375 2.109375-2.375 1.375-.890625 3.140625-.890625 2.328125 0 3.875 1.375 1.546875 1.375 1.515625 4.5625l-7.875.140625q0 2.109375.796875 3.34375.8125 1.21875 2.59375 1.21875.84375 0 1.796875-.421875.96875-.4375 1.734375-1.375l1.078125 1q-2.046875 2.9375-5.59375 2.9375zm2.15625-8.375q-.0625-2.71875-1.96875-2.71875-1.03125 0-1.640625.734375-.609375.734375-.796875 1.984375zm5.0682373 6.421875q.90625 0 1.15625-.5.265625-.5.265625-1.640625v-4.03125q0-1.078125.09375-2.03125l-1.6875.0625v-1.8125q1.515625 0 2.453125-.21875.9375-.21875 1.25-.5h1.171875q0 .046875.09375 1.1875h.046875q.703125-.546875 1.71875-.9375 1.015625-.40625 1.734375-.40625 2.1875 0 3.125 1.25.9375 1.25.9375 4.0625v3.21875q0 1.140625-.09375 2.109375.796875-.078125 1.5625-.078125v1.828125h-6.296875v-1.5625q.921875 0 1.171875-.5.265625-.5.265625-1.640625l-.015625-3.40625q0-1.578125-.453125-2.3125-.4375-.75-1.5-.75-.5625 0-1.171875.25-.59375.25-1 .640625v5.421875q0 1.140625-.09375 2.109375.765625-.078125 1.546875-.078125v1.828125h-6.28125zm23.357727 1.953125q-2.4375 0-4.3125-1.125-1.859375-1.140625-2.890625-3.09375-1.03125-1.953125-1.03125-4.328125 0-2.28125.96875-4.359375.96875-2.078125 2.859375-3.375 1.90625-1.296875 4.5625-1.296875.96875 0 2.078125.3125 1.125.3125 2.0625.859375h.015625l-.09375-1h1.84375v5.59375h-1.5625q-.640625-3.984375-4.03125-4.03125-1.609375 0-2.71875.953125-1.109375.9375-1.671875 2.5-.546875 1.5625-.546875 3.359375 0 2.0625.59375 3.671875.609375 1.609375 1.734375 2.515625 1.125.890625 2.703125.890625 1.546875 0 3.015625-.78125 1.484375-.796875 2.484375-2.171875l1.15625 1.0625q-1.578125 2.1875-3.484375 3.015625-1.890625.828125-3.734375.828125zm11.418152 0q-1.515625 0-2.390625-.90625-.875-.90625-.875-2.296875 0-2.109375 1.96875-3.203125 1.96875-1.09375 4.734375-1.203125v-1.25q0-2.1875-1.640625-2.1875-1.046875 0-1.71875.671875.28125.34375.28125.90625 0 .578125-.40625 1.046875-.390625.453125-1.15625.453125-.71875 0-1.125-.46875-.40625-.46875-.40625-1.171875 0-.9375.671875-1.65625.671875-.71875 1.828125-1.109375 1.171875-.40625 2.5625-.40625 4.4375 0 4.4375 4.59375l-.015625 3.9375q0 1.140625-.109375 2.109375.796875-.078125 1.5625-.078125v1.828125h-4.53125q-.046875-.3125-.09375-1.109375h-.03125q-1.453125 1.5-3.546875 1.5zm1.515625-2.359375q1.078125 0 1.890625-.859375v-2.6875q-1.421875.140625-2.34375.71875-.921875.578125-.921875 1.5625 0 .640625.390625.953125.40625.3125.984375.3125zm8.060364.40625q.90625 0 1.15625-.5.265625-.5.265625-1.640625v-4.03125q0-1.078125.09375-2.03125l-1.6875.0625v-1.8125q1.515625 0 2.453125-.21875.9375-.21875 1.25-.5h1.171875q.046875.359375.0625.9375.03125.5625.03125 1.125h.046875q1.640625-2.21875 3.453125-2.21875.921875 0 1.5.515625.59375.5.59375 1.484375 0 .625-.40625 1.15625-.40625.515625-1.21875.515625-.609375 0-1.078125-.3125-.46875-.3125-.53125-1.078125-.671875 0-1.390625.78125-.703125.78125-.9375 1.546875v3.921875q0 1.140625-.09375 2.109375.765625-.078125 1.546875-.078125v1.828125h-6.28125zm17.035583 1.953125q-1.03125 0-2.015625-.265625-.984375-.265625-1.53125-.671875h-.03125l.078125.71875h-1.828125l-.09375-4.125h1.5625q.125 1.09375 1.15625 1.859375 1.046875.75 2.5625.75.671875 0 1.15625-.3125.5-.3125.5-.890625 0-.421875-.3125-.703125-.3125-.296875-.75-.484375-.421875-.203125-1.71875-.703125-1.53125-.609375-2.3125-.984375-.765625-.390625-1.375-1.140625-.609375-.75-.609375-1.953125 0-.984375.484375-1.859375.5-.875 1.515625-1.4375 1.015625-.578125 2.515625-.578125.6875 0 1.5.21875.828125.21875 1.375.609375h.03125l-.03125-.703125h1.828125v4.25h-1.5625q-.21875-1.25-1.109375-1.96875-.890625-.71875-2.1875-.71875-.671875 0-1.125.3125-.453125.3125-.453125.953125 0 .671875.53125 1 .53125.328125 1.78125.734375.140625.015625.609375.1875 2.046875.71875 3.140625 1.6875 1.09375.953125 1.09375 2.515625 0 1.203125-.625 2.03125-.609375.828125-1.609375 1.25-.984375.421875-2.140625.421875zm11.545715-2.046875q.625 0 1.046875-.359375.421875-.359375.65625-.875.25-.515625.609375-1.5l4.671875-12.84375h1.6875l5.109375 13.078125q.1875.484375.40625 1.203125.21875.703125.265625 1.171875.796875-.0625 1.390625-.0625v1.84375h-6.453125v-1.578125q1.140625 0 1.140625-.96875 0-.484375-.25-1.15625l-.484375-1.3125-5.203125.09375-.390625 1.125q-.078125.203125-.328125.875-.25.671875-.4375 1.078125.765625-.078125 1.703125-.078125v1.921875h-5.140625zm9.1875-5.0625-1.09375-3q-.703125-1.96875-.921875-3.296875h-.015625q-.390625 1.734375-.890625 3.171875l-1.078125 3.125zm7.9537964 5.140625q.640625-.03125.96875-.15625.34375-.140625.53125-.5625.203125-.4375.203125-1.375v-9.1875q0-1.34375.09375-2.171875l-1.796875.078125v-1.84375l6.8125-.046875q3.234375-.03125 5.0625 1.28125 1.84375 1.3125 1.84375 3.96875 0 1.375-.765625 2.625-.765625 1.234375-2.3125 2.03125-1.53125.796875-3.734375.859375l-.9375.03125-.78125-.03125v2.125q0 1.359375-.109375 2.171875.78125-.0625 2.046875-.0625v1.84375h-7.125zm6.265625-6.21875q1.9375 0 2.828125-.96875.90625-.984375.90625-2.84375 0-3.5625-3.21875-3.5625-.828125 0-1.21875.359375-.375.359375-.375 1.546875v5.390625q.5.078125 1.078125.078125zm9.070374 6.21875q.640625-.03125.96875-.15625.34375-.140625.53125-.5625.203125-.4375.203125-1.375v-9.1875q0-1.34375.09375-2.171875l-1.796875.078125v-1.84375h6.890625v1.578125q-.65625.03125-1 .171875-.328125.125-.515625.5625-.1875.421875-.1875 1.359375v9.1875q0 1.34375-.109375 2.15625.78125-.0625 1.8125-.0625v1.84375h-6.890625z" fill="#434343"/><path d="m7.3805776 282.10236h200.6614v129.7323h-200.6614z" fill="#fff2cc" fill-rule="evenodd"/><path d="m7.3805776 282.10236h200.6614v129.7323h-200.6614z" fill-rule="evenodd" stroke="#000" stroke-linecap="butt" stroke-linejoin="round"/><path d="m31.723038 355.89914q-2.875 0-4.75-1.265625-1.875-1.28125-2.734375-3.265625-.859375-2-.859375-4.265625 0-2.125.953125-4.140625.96875-2.015625 2.875-3.328125 1.90625-1.3125 4.59375-1.3125 2.765625 0 4.640625 1.3125 1.890625 1.3125 2.796875 3.328125.90625 2.015625.90625 4.140625 0 2.09375-.953125 4.125-.953125 2.03125-2.875 3.359375-1.90625 1.3125-4.59375 1.3125zm.25-1.765625q1.546875 0 2.53125-.984375.984375-.984375 1.421875-2.484375.4375-1.515625.4375-3.140625 0-3.421875-1.203125-5.4375-1.203125-2.015625-3.546875-2.015625-1.59375 0-2.609375 1.015625-1 1-1.4375 2.546875-.421875 1.53125-.421875 3.1875 0 1.671875.46875 3.359375.484375 1.6875 1.578125 2.828125 1.09375 1.125 2.78125 1.125zm9.768448 5.9375q.90625 0 1.171875-.515625.265625-.5.265625-1.625v-10.15625q0-1.078125.09375-2.03125l-1.703125.0625v-1.8125q1.515625 0 2.4375-.21875.9375-.21875 1.25-.5h1.1875q.046875.40625.109375 1.140625h.03125q1.484375-1.296875 3.21875-1.296875 1.4375 0 2.53125.75 1.09375.75 1.703125 2.125.609375 1.375.609375 3.203125 0 1.921875-.75 3.453125-.734375 1.515625-2.09375 2.390625-1.359375.859375-3.109375.859375-.9375 0-2.140625-.4375v2.296875q0 1.03125-.0625 2.125.734375-.078125 1.53125-.078125v1.828125h-6.28125zm6.46875-5.984375q2.90625 0 2.90625-4.53125 0-1.78125-.640625-3.015625-.625-1.25-1.90625-1.25-.59375 0-1.140625.296875-.53125.28125-.875.75v7.328125q.25.15625.71875.296875.46875.125.9375.125zm13.877075 1.8125q-1.75 0-3.09375-.78125-1.34375-.78125-2.09375-2.21875-.734375-1.453125-.734375-3.359375 0-1.6875.75-3.15625.75-1.484375 2.109375-2.375 1.375-.890625 3.140625-.890625 2.328125 0 3.875 1.375 1.546875 1.375 1.515625 4.5625l-7.875.140625q0 2.109375.796875 3.34375.8125 1.21875 2.59375 1.21875.84375 0 1.796875-.421875.96875-.4375 1.734375-1.375l1.078125 1q-2.046875 2.9375-5.59375 2.9375zm2.15625-8.375q-.0625-2.71875-1.96875-2.71875-1.03125 0-1.640625.734375-.609375.734375-.796875 1.984375zm5.068207 6.421875q.90625 0 1.15625-.5.265625-.5.265625-1.640625v-4.03125q0-1.078125.09375-2.03125l-1.6875.0625v-1.8125q1.515625 0 2.453125-.21875.9375-.21875 1.25-.5h1.171875q0 .046875.09375 1.1875h.046875q.703125-.546875 1.71875-.9375 1.015625-.40625 1.734375-.40625 2.1875 0 3.125 1.25.9375 1.25.9375 4.0625v3.21875q0 1.140625-.09375 2.109375.796875-.078125 1.5625-.078125v1.828125h-6.296875v-1.5625q.921875 0 1.171875-.5.265625-.5.265625-1.640625l-.015625-3.40625q0-1.578125-.453125-2.3125-.4375-.75-1.5-.75-.5625 0-1.171875.25-.59375.25-1 .640625v5.421875q0 1.140625-.09375 2.109375.765625-.078125 1.546875-.078125v1.828125h-6.28125zm14.373337-.09375q.625 0 1.046875-.359375.421875-.359375.65625-.875.25-.515625.609375-1.5l4.671875-12.84375h1.6875l5.109375 13.078125q.1875.484375.40625 1.203125.21875.703125.265625 1.171875.796875-.0625 1.390625-.0625v1.84375h-6.453125v-1.578125q1.140625 0 1.140625-.96875 0-.484375-.25-1.15625l-.484375-1.3125-5.203125.09375-.390625 1.125q-.078125.203125-.328125.875-.25.671875-.4375 1.078125.765625-.078125 1.703125-.078125v1.921875h-5.140625zm9.1875-5.0625-1.09375-3q-.703125-1.96875-.921875-3.296875h-.015625q-.390625 1.734375-.890625 3.171875l-1.078125 3.125zm7.953827 5.140625q.640625-.03125.96875-.15625.34375-.140625.53125-.5625.203125-.4375.203125-1.375v-9.1875q0-1.34375.09375-2.171875l-1.796875.078125v-1.84375h6.890625v1.578125q-.65625.03125-1 .171875-.328125.125-.515625.5625-.1875.421875-.1875 1.359375v9.1875q0 1.296875-.109375 2.109375h3.21875q1.4375-.015625 2.234375-1.015625.796875-1 .796875-2.921875h1.609375l-.15625 5.765625h-12.78125zm14.495956 0q.640625-.03125.96875-.15625.34375-.140625.53125-.5625.203125-.4375.203125-1.375v-9.1875q0-1.34375.09375-2.171875l-1.796875.078125v-1.84375l6.8125-.046875q3.234375-.03125 5.0625 1.28125 1.84375 1.3125 1.84375 3.96875 0 1.375-.765625 2.625-.765625 1.234375-2.3125 2.03125-1.53125.796875-3.734375.859375l-.9375.03125-.78125-.03125v2.125q0 1.359375-.109375 2.171875.78125-.0625 2.046875-.0625v1.84375h-7.125zm6.265625-6.21875q1.9375 0 2.828125-.96875.90625-.984375.90625-2.84375 0-3.5625-3.21875-3.5625-.828125 0-1.21875.359375-.375.359375-.375 1.546875v5.390625q.5.078125 1.078125.078125zm9.070328 6.21875q.640625-.03125.96875-.15625.34375-.140625.53125-.5625.203125-.4375.203125-1.375v-9.1875q0-1.34375.09375-2.171875l-1.796875.078125v-1.84375l6.8125153-.046875q3.28125-.03125 5.0625 1.15625 1.796875 1.171875 1.796875 3.8125 0 1.65625-1.0625 2.9375-1.0625 1.28125-3.15625 1.875v.03125q.4375.171875.890625.59375.453125.40625.765625.921875l1.125 1.671875q.8125 1.28125 1.359375 1.765625.546875.46875 1.328125.5v1.578125h-3.953125q-.40625-.28125-.828125-.828125-.40625-.546875-.921875-1.421875l-1.78125-2.890625q-.59375-.953125-1.015625-1.390625h-1.234375v2.578125q0 1.359375-.109375 2.171875.78125-.0625 2.046875-.0625v1.84375h-7.1250153zm6.3281403-6.671875q1.96875 0 2.84375-.875.875-.890625.875-2.75 0-2-1.015625-2.640625-1.015625-.65625-2.25-.65625-.828125 0-1.21875.359375-.375.359375-.375 1.546875v4.90625q.71875.109375 1.140625.109375zm15.33844 6.59375q.625 0 1.046875-.359375.421875-.359375.65625-.875.25-.515625.609375-1.5l4.671875-12.84375h1.6875l5.109375 13.078125q.1875.484375.40625 1.203125.21875.703125.265625 1.171875.796875-.0625 1.390625-.0625v1.84375h-6.453125v-1.578125q1.140625 0 1.140625-.96875 0-.484375-.25-1.15625l-.484375-1.3125-5.203125.09375-.390625 1.125q-.078125.203125-.328125.875-.25.671875-.4375 1.078125.765625-.078125 1.703125-.078125v1.921875h-5.140625zm9.1875-5.0625-1.09375-3q-.703125-1.96875-.921875-3.296875h-.015625q-.390625 1.734375-.890625 3.171875l-1.078125 3.125zm7.953827 5.140625q.640625-.03125.96875-.15625.34375-.140625.53125-.5625.203125-.4375.203125-1.375v-9.1875q0-1.34375.09375-2.171875l-1.796875.078125v-1.84375l6.8125-.046875q3.234375-.03125 5.0625 1.28125 1.84375 1.3125 1.84375 3.96875 0 1.375-.765625 2.625-.765625 1.234375-2.3125 2.03125-1.53125.796875-3.734375.859375l-.9375.03125-.78125-.03125v2.125q0 1.359375-.109375 2.171875.78125-.0625 2.046875-.0625v1.84375h-7.125zm6.265625-6.21875q1.9375 0 2.828125-.96875.90625-.984375.90625-2.84375 0-3.5625-3.21875-3.5625-.828125 0-1.21875.359375-.375.359375-.375 1.546875v5.390625q.5.078125 1.078125.078125zm9.0703125 6.21875q.640625-.03125.96875-.15625.34375-.140625.53125-.5625.203125-.4375.203125-1.375v-9.1875q0-1.34375.09375-2.171875l-1.796875.078125v-1.84375h6.890625v1.578125q-.65625.03125-1 .171875-.328125.125-.515625.5625-.1875.421875-.1875 1.359375v9.1875q0 1.34375-.109375 2.15625.78125-.0625 1.8125-.0625v1.84375h-6.890625z" fill="#434343"/><path d="m386.1649 195.68665-.9133911 86.4252" fill="none"/><g fill-rule="evenodd" stroke="#000" stroke-linecap="butt"><path d="m386.1287 199.11354-.8409729 79.571396" stroke-linejoin="round"/><path d="m386.1287 199.11354 1.1126404 1.1363983-1.0918884-3.1014862-1.1571655 3.077713z" fill="#000"/><path d="m385.28772 278.68494-1.1126099-1.1364136 1.0918579 3.1015015 1.1571655-3.0777283z" fill="#000"/></g><path d="m485.59055 346.9685h76.88187" fill="none"/><path d="m485.59055 346.9685h70.88187" fill-rule="evenodd" stroke="#000" stroke-linecap="butt" stroke-linejoin="round"/><path d="m556.4724 348.62024 4.538147-1.6517334-4.538147-1.6517334z" fill="#000" fill-rule="evenodd" stroke="#000" stroke-linecap="butt"/><path d="m284.92914 346.9685h-76.8819" fill="none"/><g fill-rule="evenodd"><path d="m284.92914 346.9685h-70.8819" stroke="#000" stroke-linecap="butt" stroke-linejoin="round"/><path d="m214.04724 345.31677-4.538101 1.6517334 4.538101 1.6517334z" fill="#000" stroke="#000" stroke-linecap="butt"/><path d="m562.47766 96.34845c0 6.3502045 44.919617 11.4980545 100.33075 11.4980545s100.33069-5.14785 100.33069-11.4980545v99.27161c0 6.3502045-44.919556 11.498047-100.33069 11.498047-55.411133 0-100.33075-5.1478424-100.33075-11.498047z" fill="#d9ead3"/><path d="m562.47766 96.34845c0-6.3502045 44.919617-11.4980545 100.33075-11.4980545s100.33069 5.14785 100.33069 11.4980545-44.919556 11.4980545-100.33069 11.4980545c-55.411133 0-100.33075-5.14785-100.33075-11.4980545z" fill="#e8f2e4"/></g><path d="m763.1391 96.34845c0 6.3502045-44.919556 11.4980545-100.33069 11.4980545-55.411133 0-100.33075-5.14785-100.33075-11.4980545s44.919617-11.4980545 100.33075-11.4980545 100.33069 5.14785 100.33069 11.4980545v99.27161c0 6.3502045-44.919556 11.498047-100.33069 11.498047-55.411133 0-100.33075-5.1478424-100.33075-11.498047v-99.27161" fill="none"/><path d="m763.1391 96.34845c0 6.3502045-44.919556 11.4980545-100.33069 11.4980545-55.411133 0-100.33075-5.14785-100.33075-11.4980545s44.919617-11.4980545 100.33075-11.4980545 100.33069 5.14785 100.33069 11.4980545v99.27161c0 6.3502045-44.919556 11.498047-100.33069 11.498047-55.411133 0-100.33075-5.1478424-100.33075-11.498047v-99.27161" fill-rule="evenodd" stroke="#000" stroke-linecap="butt" stroke-linejoin="round"/><path d="m596.21173 158.69516q.640625-.03125.96875-.15625.34375-.140625.53125-.5625.203125-.4375.203125-1.375v-9.1875q0-1.34375.09375-2.171875l-1.796875.078125v-1.84375l6.8125-.046875q3.234375-.03125 5.0625 1.28125 1.84375 1.3125 1.84375 3.96875 0 1.375-.765625 2.625-.765625 1.234375-2.3125 2.03125-1.53125.796875-3.734375.859375l-.9375.03125-.78125-.03125v2.125q0 1.359375-.109375 2.171875.78125-.0625 2.046875-.0625v1.84375h-7.125zm6.265625-6.21875q1.9375 0 2.828125-.96875.90625-.984375.90625-2.84375 0-3.5625-3.21875-3.5625-.828125 0-1.21875.359375-.375.359375-.375 1.546875v5.390625q.5.078125 1.078125.078125zm14.7265625 8.1875q-1.75 0-3.140625-.75-1.390625-.75-2.1875-2.140625-.78125-1.390625-.78125-3.234375 0-1.953125.8125-3.453125.8125-1.515625 2.1875-2.359375 1.390625-.84375 3.046875-.84375 1.71875 0 3.078125.75 1.375.75 2.171875 2.15625.796875 1.390625.796875 3.265625 0 2-.765625 3.484375-.75 1.484375-2.109375 2.3125-1.359375.8125-3.109375.8125zm.046875-1.703125q1.328125 0 1.84375-1.21875.53125-1.234375.53125-3.078125 0-2.078125-.59375-3.578125-.59375-1.515625-1.890625-1.515625-1.328125 0-1.9375 1.25-.59375 1.25-.59375 3.0625 0 2.09375.640625 3.59375.65625 1.484375 2 1.484375zm13.177734 1.703125q-1.03125 0-2.015625-.265625-.984375-.265625-1.53125-.671875h-.03125l.078125.71875h-1.828125l-.09375-4.125h1.5625q.125 1.09375 1.15625 1.859375 1.046875.75 2.5625.75.671875 0 1.15625-.3125.5-.3125.5-.890625 0-.421875-.3125-.703125-.3125-.296875-.75-.484375-.421875-.203125-1.71875-.703125-1.53125-.609375-2.3125-.984375-.765625-.390625-1.375-1.140625-.609375-.75-.609375-1.953125 0-.984375.484375-1.859375.5-.875 1.515625-1.4375 1.015625-.578125 2.515625-.578125.6875 0 1.5.21875.828125.21875 1.375.609375h.03125l-.03125-.703125h1.828125v4.25h-1.5625q-.21875-1.25-1.109375-1.96875-.890625-.71875-2.1875-.71875-.671875 0-1.125.3125-.453125.3125-.453125.953125 0 .671875.53125 1 .53125.328125 1.78125.734375.140625.015625.609375.1875 2.046875.71875 3.140625 1.6875 1.09375.953125 1.09375 2.515625 0 1.203125-.625 2.03125-.609375.828125-1.609375 1.25-.984375.421875-2.140625.421875zm10.874329 0q-3.75 0-3.75-4.609375l.0625-5.796875h-1.640625v-1.984375q.765625 0 1.453125-.46875.6875-.484375 1.15625-1.1875.484375-.703125.6875-1.34375h1.765625l-.015625 3h3.046875v1.84375l-3.046875.078125-.03125 5.90625q0 2.328125 1.4375 2.328125 1.15625 0 2.1875-1.4375l1.15625 1.078125q-1.125 1.65625-2.265625 2.125-1.125.46875-2.203125.46875zm10.318237 6.109375q-2.90625 0-4.1875-.890625-1.28125-.875-1.28125-2.25 0-.84375.53125-1.578125.546875-.71875 1.75-1.1875-.9375-.25-1.359375-.796875-.421875-.5625-.421875-1.3125 0-.71875.5625-1.453125.5625-.75 1.765625-1.109375v-.03125q-1.078125-.421875-1.71875-1.34375-.625-.9375-.625-2.203125 0-1.34375.75-2.421875.75-1.078125 1.984375-1.6875 1.25-.625 2.609375-.625.71875 0 1.515625.1875.796875.171875 1.34375.5625.453125-1.25 1.21875-2.078125.78125-.828125 1.828125-.828125.796875 0 1.21875.40625.4375.40625.4375 1.125 0 .5625-.34375 1.015625-.34375.453125-1.09375.453125-.390625 0-.765625-.265625-.359375-.28125-.4375-.671875-.3125.09375-.625.609375-.3125.515625-.359375.953125.671875.609375 1.046875 1.40625.375.78125.375 1.6875 0 1.34375-.78125 2.4375-.765625 1.09375-2.015625 1.703125-1.234375.609375-2.65625.609375l-.671875-.015625q-.53125-.046875-.765625-.046875-.53125 0-.890625.1875-.359375.1875-.359375.53125 0 .4375.65625.625.671875.171875 2.421875.265625 3.015625.15625 4.578125 1 1.5625.84375 1.5625 2.8125 0 1.296875-1 2.25-1 .96875-2.578125 1.46875-1.5625.5-3.21875.5zm.359375-11.1875q.921875 0 1.453125-.8125.546875-.8125.546875-1.890625 0-1.375-.53125-2.375-.53125-1.015625-1.484375-1.015625-.921875 0-1.46875.84375-.546875.84375-.546875 2 0 1.34375.546875 2.296875.546875.953125 1.484375.953125zm.34375 9.53125q1.078125 0 1.859375-.296875.78125-.28125 1.1875-.71875.40625-.4375.40625-.90625 0-.734375-.859375-1.125-.84375-.375-2.59375-.453125-.203125-.03125-.625-.03125-.25-.015625-.84375-.0625-.59375-.03125-.984375-.09375-.359375.28125-.5625.734375-.203125.46875-.203125.921875 0 .9375.875 1.484375.875.546875 2.34375.546875zm7.508545-6.40625q.90625 0 1.15625-.5.265625-.5.265625-1.640625v-4.03125q0-1.078125.09375-2.03125l-1.6875.0625v-1.8125q1.515625 0 2.453125-.21875.9375-.21875 1.25-.5h1.171875q.046875.359375.0625.9375.03125.5625.03125 1.125h.046875q1.640625-2.21875 3.453125-2.21875.921875 0 1.5.515625.59375.5.59375 1.484375 0 .625-.40625 1.15625-.40625.515625-1.21875.515625-.609375 0-1.078125-.3125-.46875-.3125-.53125-1.078125-.671875 0-1.390625.78125-.703125.78125-.9375 1.546875v3.921875q0 1.140625-.09375 2.109375.765625-.078125 1.546875-.078125v1.828125h-6.28125zm17.20752 1.953125q-1.75 0-3.09375-.78125-1.34375-.78125-2.09375-2.21875-.734375-1.453125-.734375-3.359375 0-1.6875.75-3.15625.75-1.484375 2.109375-2.375 1.375-.890625 3.140625-.890625 2.328125 0 3.875 1.375 1.546875 1.375 1.515625 4.5625l-7.875.140625q0 2.109375.796875 3.34375.8125 1.21875 2.59375 1.21875.84375 0 1.796875-.421875.96875-.4375 1.734375-1.375l1.078125 1q-2.046875 2.9375-5.59375 2.9375zm2.15625-8.375q-.0625-2.71875-1.96875-2.71875-1.03125 0-1.640625.734375-.609375.734375-.796875 1.984375zm11.458801 8.375q-.984375 0-2.109375-.3125-1.109375-.3125-2.046875-.875h-.03125l.078125 1.015625h-1.84375v-5.625h1.578125q.3125 1.96875 1.515625 3.015625 1.203125 1.046875 2.921875 1.046875 1.25 0 2.0625-.65625.8125-.65625.8125-1.59375 0-.78125-.546875-1.328125-.53125-.546875-1.1875-.859375-.65625-.3125-2.09375-.890625-2.640625-1.0625-4.046875-2.40625-1.40625-1.34375-1.40625-3.515625 0-1.109375.546875-2.15625.5625-1.046875 1.8125-1.734375 1.265625-.703125 3.25-.703125 1.046875 0 2.171875.3125 1.125.296875 1.875.84375h.015625l-.09375-.984375h1.875v5.59375h-1.59375q-.3125-1.96875-1.375-3-1.0625-1.03125-2.71875-1.03125-1.078125 0-1.859375.59375-.78125.578125-.78125 1.46875 0 1.046875.875 1.78125.890625.71875 3.015625 1.578125 2.421875.953125 3.9375 2.21875 1.53125 1.265625 1.53125 3.34375 0 1.421875-.78125 2.53125-.765625 1.09375-2.15625 1.71875-1.390625.609375-3.203125.609375zm25.008179 4.84375q-1.203125 0-1.828125-.09375-.609375-.078125-1.109375-.34375-.5-.265625-1.203125-.859375-.578125-.5-1.5-1.484375-1.0625-1.109375-1.765625-1.59375-.6875-.46875-1.65625-.46875-2.78125 0-4.609375-1.28125-1.8125-1.296875-2.65625-3.28125-.84375-2-.84375-4.234375 0-2.125.953125-4.140625.96875-2.015625 2.875-3.328125 1.90625-1.3125 4.59375-1.3125 2.765625 0 4.640625 1.3125 1.875 1.3125 2.78125 3.328125.90625 2.015625.90625 4.140625 0 1.65625-.609375 3.3125-.609375 1.640625-1.84375 2.96875-1.21875 1.328125-2.9375 1.984375v.015625q1.125 0 1.84375.25.71875.265625 1.609375 1.09375l1.078125 1.03125q.96875.921875 1.328125 1.140625.375.234375.984375.234375v1.609375zm-8.59375-6.609375q1.546875 0 2.53125-.984375.984375-.984375 1.421875-2.484375.453125-1.515625.453125-3.140625 0-3.421875-1.203125-5.4375-1.1875-2.015625-3.546875-2.015625-1.609375 0-2.609375 1.015625-.984375 1-1.421875 2.546875-.4375 1.53125-.4375 3.1875 0 1.671875.484375 3.359375.484375 1.6875 1.5625 2.828125 1.078125 1.125 2.765625 1.125zm10.245605-.203125q.640625-.03125.96875-.15625.34375-.140625.53125-.5625.203125-.4375.203125-1.375v-9.1875q0-1.34375.09375-2.171875l-1.796875.078125v-1.84375h6.890625v1.578125q-.65625.03125-1 .171875-.328125.125-.515625.5625-.1875.421875-.1875 1.359375v9.1875q0 1.296875-.109375 2.109375h3.21875q1.4375-.015625 2.234375-1.015625.796875-1 .796875-2.921875h1.609375l-.15625 5.765625h-12.78125z" fill="#434343"/><path d="m662.8084 207.1181v74.99213" fill="none"/><path d="m662.8084 210.5452v71.56503" fill-rule="evenodd" stroke="#000" stroke-linecap="butt" stroke-linejoin="round"/><path d="m662.8084 210.5452 1.1245728 1.124588-1.1245728-3.0897675-1.1245728 3.0897675z" fill="#000" fill-rule="evenodd" stroke="#000" stroke-linecap="butt"/></g></svg>